# xmcd CD database file
#
# Track frame offsets:
#	150
#	16280
#	35076
#	55932
#	74432
#	85502
#	99985
#	118900
#	135317
#	151440
#	167229
#	184526
#	198391
#	217061
#	232847
#	256994
#
# Disc length: 3679 seconds
#
# Revision: 0
# Processed by: cddbd v1.5.2PL0 Copyright (c) Steve Scherf et al.
# Submitted via: CDex 1.51
#
DISCID=d70e5d10
DTITLE=Midnighttrain Skiffle Band - Key to the highway
DYEAR=2012
DGENRE=Blues
TTITLE0=Mobile Line
TTITLE1=Midnight Special
TTITLE2=St. James Infirmary
TTITLE3=Folsom Prison Blues
TTITLE4=I Feel Fine
TTITLE5=This Is The Life
TTITLE6=Key to the Highway
TTITLE7=Wochenend und Sonnenschein - Hallo, kleines Fräulein (Gisela)
TTITLE8=Gamblin' Man
TTITLE9=Sixteen Tons
TTITLE10=How Long Blues
TTITLE11=Mercury Blues
TTITLE12=It's Tight Like That
TTITLE13=Cherokee Boogie
TTITLE14=What's Up
TTITLE15=Tupelo Honey
EXTD=YEAR: 2012
EXTT0=
EXTT1=
EXTT2=
EXTT3=
EXTT4=
EXTT5=
EXTT6=
EXTT7=
EXTT8=
EXTT9=
EXTT10=
EXTT11=
EXTT12=
EXTT13=
EXTT14=
EXTT15=
PLAYORDER=
